<svg width="84" height="332" viewBox="0 0 84 332" fill="none" xmlns="http://www.w3.org/2000/svg">
<path d="M73 87.5L73.8831 87.9692L73 87.5ZM73 332L83.0464 326.308L73.0934 320.453L73 332ZM13.7983 1.97946C15.1364 2.25495 16.4941 2.5845 17.8664 2.96602L18.4021 1.0391C16.9883 0.646047 15.5865 0.305652 14.2017 0.020543L13.7983 1.97946ZM25.8245 5.69339C28.3711 6.72554 30.9323 7.91292 33.4788 9.24203L34.4042 7.469C31.8035 6.1116 29.1842 4.89708 26.5757 3.83985L25.8245 5.69339ZM40.7794 13.4708C43.1338 14.9735 45.4486 16.5904 47.6991 18.3096L48.9133 16.7203C46.6178 14.9668 44.2569 13.3177 41.8554 11.7849L40.7794 13.4708ZM54.1828 23.7167C56.2702 25.6171 58.2689 27.6064 60.1549 29.6729L61.6322 28.3246C59.7028 26.2107 57.6602 24.1779 55.5292 22.2378L54.1828 23.7167ZM65.51 36.1716C67.1971 38.4548 68.7372 40.8065 70.1046 43.2136L71.8436 42.2258C70.4342 39.7445 68.8498 37.326 67.1185 34.9831L65.51 36.1716ZM73.7336 50.7686C74.7659 53.3925 75.5795 56.0614 76.1459 58.7609L78.1032 58.3503C77.5123 55.5333 76.665 52.7569 75.5947 50.0364L73.7336 50.7686ZM77.0757 67.0303C77.1126 69.7726 76.8743 72.5339 76.3313 75.3007L78.2939 75.6858C78.8642 72.7798 79.1142 69.8804 79.0755 67.0035L77.0757 67.0303ZM73.9046 83.2577C73.3792 84.5164 72.7843 85.7746 72.1169 87.0308L73.8831 87.9692C74.5791 86.6591 75.2006 85.345 75.7503 84.0282L73.9046 83.2577ZM72.1169 87.0308C71.4736 88.2418 70.8169 89.4089 70.1482 90.535L71.8678 91.5563C72.5529 90.4026 73.225 89.2079 73.8831 87.9692L72.1169 87.0308ZM65.7263 97.1942C64.0813 99.414 62.3833 101.452 60.6454 103.345L62.1186 104.698C63.9017 102.756 65.6447 100.664 67.3332 98.385L65.7263 97.1942ZM54.9567 108.953C52.9274 110.773 50.8636 112.459 48.7824 114.06L50.0021 115.645C52.1143 114.02 54.218 112.302 56.292 110.442L54.9567 108.953ZM42.2888 118.815C40.096 120.363 37.8315 121.927 35.6642 123.461L36.82 125.093C39.0228 123.534 41.189 122.04 43.4423 120.449L42.2888 118.815ZM29.118 128.298C26.9896 129.965 24.9089 131.717 22.9021 133.614L24.2758 135.067C26.2281 133.222 28.2598 131.511 30.3512 129.873L29.118 128.298ZM17.2892 139.601C15.606 141.645 14.0068 143.858 12.5099 146.285L14.2121 147.334C15.6596 144.988 17.2055 142.849 18.8331 140.872L17.2892 139.601ZM8.66573 153.533C7.59357 155.902 6.60422 158.444 5.70734 161.186L7.60824 161.808C8.48351 159.132 9.44681 156.658 10.4877 154.358L8.66573 153.533ZM3.5263 169.056C2.94028 171.584 2.42066 174.258 1.97252 177.092L3.94797 177.405C4.38918 174.615 4.89994 171.987 5.47464 169.508L3.5263 169.056ZM0.940381 185.137C0.680453 187.718 0.472124 190.416 0.318266 193.239L2.3153 193.348C2.46759 190.554 2.67363 187.886 2.93032 185.338L0.940381 185.137ZM0.0340691 201.359C0.0114402 202.713 0 204.093 0 205.5H2C2 204.104 2.01135 202.735 2.03379 201.393L0.0340691 201.359ZM0 205.5C0 206.924 0.0273429 208.32 0.0810598 209.69L2.07952 209.611C2.02685 208.269 2 206.898 2 205.5H0ZM0.748703 217.885C1.10524 220.711 1.58405 223.41 2.17412 225.99L4.12377 225.544C3.54889 223.03 3.08146 220.397 2.73297 217.635L0.748703 217.885ZM4.44541 233.896C5.38456 236.582 6.45487 239.12 7.63906 241.524L9.4332 240.64C8.28464 238.309 7.24566 235.845 6.33328 233.236L4.44541 233.896ZM11.7492 248.703C13.29 251.044 14.9446 253.237 16.6896 255.302L18.217 254.011C16.5208 252.004 14.9144 249.874 13.4197 247.603L11.7492 248.703ZM22.3645 261.309C24.3737 263.222 26.4558 265.011 28.5833 266.696L29.8252 265.129C27.7398 263.476 25.7041 261.727 23.7437 259.86L22.3645 261.309ZM35.218 271.56C37.5045 273.12 39.811 274.591 42.1057 275.995L43.1495 274.289C40.8759 272.898 38.5982 271.445 36.3451 269.908L35.218 271.56ZM49.1487 280.16C51.5734 281.559 53.9287 282.897 56.2151 284.225L57.2197 282.496C54.935 281.169 52.5524 279.815 50.1481 278.428L49.1487 280.16ZM63.1476 288.416C65.5305 289.942 67.7329 291.475 69.7029 293.062L70.9577 291.505C68.9135 289.858 66.647 288.282 64.2259 286.732L63.1476 288.416ZM75.3338 298.615C76.9896 300.722 78.2156 302.966 78.9321 305.427L80.8524 304.868C80.0534 302.124 78.6944 299.655 76.9064 297.38L75.3338 298.615ZM79.5269 313.12C79.2722 315.44 78.6538 317.964 77.6123 320.732L79.4842 321.437C80.5745 318.538 81.2391 315.85 81.515 313.338L79.5269 313.12Z" fill="#8168AB"/>
</svg>
